<?xml version="1.0" standalone="no"?>
<!DOCTYPE svg PUBLIC "-//W3C//DTD SVG 20010904//EN"
 "http://www.w3.org/TR/2001/REC-SVG-20010904/DTD/svg10.dtd">
<svg version="1.0" xmlns="http://www.w3.org/2000/svg"
 width="1000.000000pt" height="907.000000pt" viewBox="0 0 1000.000000 907.000000"
 preserveAspectRatio="xMidYMid meet">

<g transform="translate(0.000000,907.000000) scale(0.100000,-0.100000)"
fill="#000000" stroke="none">
<path d="M9010 8805 l0 -115 -110 0 -110 0 0 -55 0 -55 110 0 110 0 0 -110 0
-110 55 0 55 0 0 110 0 110 115 0 115 0 0 55 0 55 -115 0 -115 0 0 -55 0 -55
-55 0 -55 0 0 54 c0 60 6 66 71 66 l39 0 0 110 0 110 -55 0 -55 0 0 -115z"/>
<path d="M7098 8748 l-3 -53 -112 -3 -113 -3 0 -54 0 -55 -115 0 -115 0 0 -55
0 -55 -110 0 -110 0 0 -55 c0 -66 -6 -69 -137 -63 l-88 3 -3 -57 -3 -58 -109
0 -109 0 -3 -52 -3 -53 -52 -3 -53 -3 0 -55 0 -54 55 0 55 0 0 -55 0 -55 163
-2 162 -3 3 -57 3 -58 114 0 115 0 0 -335 0 -335 55 0 55 0 0 -55 0 -55 110 0
110 0 0 -55 0 -55 48 -1 c42 -1 136 -6 170 -8 8 -1 12 -19 12 -56 l0 -55 283
2 c317 3 284 -6 286 82 l1 38 165 -4 164 -4 3 56 3 55 58 3 57 3 0 54 0 55 55
0 55 0 0 395 0 396 -152 -1 c-84 -1 -161 -1 -170 0 -15 0 -18 9 -18 55 l0 55
-170 0 -170 0 0 55 0 55 -112 0 c-62 0 -137 3 -165 6 l-53 7 0 47 0 47 53 7
c28 3 103 6 165 6 l112 0 0 -55 0 -55 173 -2 172 -3 3 -57 3 -58 222 -2 222
-3 3 -112 3 -113 48 0 c55 0 61 7 61 76 l0 44 55 0 55 0 0 -224 0 -225 -52 -3
-53 -3 -3 -167 -2 -168 165 0 165 0 0 164 0 165 -52 3 -53 3 -3 228 -2 227 55
0 55 0 0 55 0 55 55 0 55 0 0 54 0 55 -52 3 -53 3 -5 55 -5 55 -105 0 -105 0
-3 58 -3 57 -114 0 -115 0 0 55 0 55 -110 0 -110 0 0 55 0 55 -115 0 -115 0 0
55 0 54 -112 3 -113 3 -3 53 -3 52 -274 0 -274 0 -3 -52z m269 -74 c-3 -3 -12
-4 -19 -1 -8 3 -5 6 6 6 11 1 17 -2 13 -5z m153 -2 c0 -5 -13 -7 -30 -4 -16 2
-30 6 -30 8 0 2 14 4 30 4 17 0 30 -4 30 -8z m20 -37 l0 -45 -52 1 -53 1 40 8
c22 4 43 6 48 3 4 -2 7 14 7 36 0 23 2 41 5 41 3 0 5 -20 5 -45z m-295 -35 c7
0 16 6 18 13 3 7 6 5 6 -5 1 -13 -7 -18 -23 -18 -26 0 -40 12 -28 24 3 4 8 2
10 -3 2 -6 10 -11 17 -11z m78 -7 c-7 -2 -21 -2 -30 0 -10 3 -4 5 12 5 17 0
24 -2 18 -5z m-308 -35 c6 -4 2 -8 -7 -8 -10 0 -18 7 -18 17 0 9 3 12 8 7 4
-5 12 -12 17 -16z m133 15 c-27 -2 -69 -2 -95 0 -27 2 -5 3 47 3 52 0 74 -1
48 -3z m40 -27 c-8 -9 -15 -10 -19 -4 -4 6 -18 9 -32 6 -14 -3 -32 -1 -39 3
-8 5 10 9 45 9 49 0 56 -2 45 -14z m-315 -93 c-7 -2 -19 -2 -25 0 -7 3 -2 5
12 5 14 0 19 -2 13 -5z m-185 -115 c-7 -4 -25 -5 -40 -2 -21 4 -28 2 -28 -10
0 -9 -5 -16 -11 -16 -6 0 -9 7 -5 15 3 8 0 15 -5 15 -7 0 -9 -11 -7 -24 3 -14
1 -31 -3 -38 -7 -10 -9 -10 -10 2 0 8 -5 4 -9 -10 l-8 -25 -1 28 c-1 15 4 27
9 27 6 0 10 9 10 20 0 20 0 20 -20 0 -11 -11 -26 -17 -35 -14 -8 4 -15 1 -15
-4 0 -6 8 -13 18 -15 13 -4 11 -5 -5 -6 -13 0 -23 -6 -23 -12 0 -8 -5 -8 -15
1 -10 9 -15 9 -15 1 0 -6 -4 -11 -8 -11 -5 0 -9 7 -9 15 0 8 9 15 19 15 19 0
24 15 8 25 -5 3 -10 1 -10 -4 0 -6 -7 -11 -15 -11 -10 0 -15 -10 -15 -27 0
-43 -12 -18 -15 32 l-3 46 139 -2 c77 -2 134 -6 127 -11z m-13 -68 c3 -5 1
-10 -4 -10 -6 0 -11 5 -11 10 0 6 2 10 4 10 3 0 8 -4 11 -10z m-562 -170 c-3
-11 -7 -20 -9 -20 -2 0 -4 9 -4 20 0 11 4 20 9 20 5 0 7 -9 4 -20z m-26 -57
c-3 -10 -5 -2 -5 17 0 19 2 27 5 18 2 -10 2 -26 0 -35z m28 -3 c3 -5 1 -10 -4
-10 -6 0 -11 5 -11 10 0 6 2 10 4 10 3 0 8 -4 11 -10z m542 -557 c-2 -16 -4
-3 -4 27 0 30 2 43 4 28 2 -16 2 -40 0 -55z"/>
<path d="M6440 8323 c0 -10 4 -14 8 -8 4 6 11 13 16 18 5 4 2 7 -7 7 -10 0
-17 -8 -17 -17z"/>
<path d="M5547 7903 l-38 -4 3 -107 3 -107 58 -3 57 -3 0 -54 0 -55 110 0 110
0 0 55 0 55 -110 0 -109 0 -3 113 c-3 125 1 119 -81 110z"/>
<path d="M5290 7625 l0 -55 110 0 110 0 0 55 0 55 -110 0 -110 0 0 -55z"/>
<path d="M9350 7570 l0 -110 55 0 55 0 0 110 0 110 -55 0 -55 0 0 -110z"/>
<path d="M5515 7557 c-3 -7 -4 -58 -3 -113 l3 -99 55 0 55 0 0 110 0 110 -53
3 c-37 2 -54 -1 -57 -11z"/>
<path d="M9135 7448 c-2 -7 -6 -33 -7 -58 l-3 -45 110 0 110 0 0 55 0 55 -103
3 c-76 2 -104 -1 -107 -10z"/>
<path d="M9464 7436 c-3 -13 -4 -38 -2 -57 l3 -34 108 -3 107 -3 0 61 0 60
-105 0 c-102 0 -105 -1 -111 -24z"/>
<path d="M9350 7230 l0 -110 55 0 55 0 0 110 0 110 -55 0 -55 0 0 -110z"/>
<path d="M5630 6555 l0 -335 55 0 54 0 3 -112 3 -113 53 -3 52 -3 0 -54 0 -54
58 -3 57 -3 3 -57 3 -58 54 0 55 0 0 -55 0 -55 54 0 55 0 3 -52 3 -53 110 -5
110 -5 3 -52 3 -53 337 -2 336 -3 2 -50 c0 -27 2 -52 3 -55 0 -3 25 -5 53 -5
l53 0 3 -167 2 -168 -169 0 -170 0 -3 -57 -3 -58 -282 -3 -283 -2 0 -55 0 -55
-165 0 -165 0 0 -110 0 -110 55 0 55 0 0 -61 c0 -55 2 -61 18 -56 11 2 36 2
57 -2 38 -6 38 -6 39 -56 l1 -50 53 -3 52 -3 0 -54 0 -54 58 -3 57 -3 0 -110
0 -110 -57 -3 -58 -3 0 -54 0 -54 -52 -3 -53 -3 -3 -52 -3 -53 -55 0 -54 0 0
-60 0 -60 -55 0 -55 0 0 -55 0 -55 -60 0 -60 0 0 -55 0 -55 -55 0 -55 0 0 -60
0 -60 -54 0 -55 0 -3 -52 -3 -53 -57 -3 -58 -3 0 -54 0 -54 -52 -3 -53 -3 0
-55 0 -55 -112 -3 -112 -3 -3 58 -3 58 -55 5 -55 5 -3 52 -3 52 -52 3 -52 3
-3 53 -3 52 -55 0 -54 0 0 60 0 60 -60 0 -60 0 0 55 0 55 -55 0 -55 0 0 55 0
55 -55 0 -54 0 -3 58 -3 57 -52 3 -53 3 0 -60 0 -61 -55 0 -55 0 0 -55 0 -55
-60 0 -60 0 0 -55 0 -55 -55 0 -54 0 -3 -57 -3 -58 -53 0 -52 0 0 -57 0 -58
-57 0 -58 0 0 -52 0 -53 -55 -5 -55 -5 -3 -57 -3 -58 -54 0 -54 0 -3 -52 -3
-53 -58 -3 -58 -3 3 -52 3 -52 -335 0 -335 0 0 395 0 395 470 2 c259 0 512 2
563 2 l92 1 0 53 0 52 52 0 53 0 3 58 3 57 54 0 55 0 0 55 0 55 55 0 54 0 3
113 3 112 55 1 55 1 3 221 2 222 -1075 0 -1075 0 0 -55 0 -55 -110 0 -110 0 0
-110 0 -110 -55 0 -54 0 -3 -57 -3 -58 -52 -3 -53 -3 -2 -957 -3 -957 -55 0
-55 -1 -3 -57 -3 -57 -54 0 -54 0 -3 -107 -3 -108 -53 -3 -52 -3 0 -54 0 -54
-57 -3 -58 -3 -3 -58 -3 -59 -54 4 -54 3 -3 -55 -3 -55 -52 -3 -53 -3 0 -54 0
-54 -58 -3 -57 -3 -3 -52 -3 -52 -52 -3 -52 -3 -3 -58 -3 -57 -54 0 -55 0 0
-55 0 -55 -55 0 -55 0 0 -55 0 -55 -55 0 -54 0 -3 -57 -3 -58 -57 -3 -58 -3 0
-54 0 -55 -54 0 -55 0 -3 -52 -3 -53 -52 -3 -53 -3 0 -110 0 -109 620 0 620 0
0 55 0 55 55 0 54 0 3 57 3 57 52 -3 53 -2 0 55 0 56 60 0 60 0 0 -165 0 -165
389 0 390 0 3 53 3 52 58 3 57 3 0 54 0 54 53 3 52 3 3 563 2 562 505 0 505 0
0 55 0 54 58 3 c63 3 58 -4 61 91 1 26 3 27 56 27 l55 0 0 55 0 55 55 0 55 0
0 55 0 55 60 0 59 0 3 58 3 57 53 3 52 3 0 50 0 49 55 0 55 0 0 -50 0 -50 55
0 55 0 0 -60 0 -59 58 -3 57 -3 3 -52 3 -52 52 -3 52 -3 5 -55 5 -55 52 -3 52
-3 3 -52 3 -52 58 -3 57 -3 0 -54 0 -55 55 0 55 0 0 -54 c0 -34 5 -56 13 -58
10 -4 150 -3 195 1 8 1 12 19 12 56 l0 55 55 0 55 0 0 55 0 54 58 3 57 3 3 52
3 52 52 3 52 3 3 58 3 57 54 0 55 0 0 55 0 54 57 3 56 3 3 47 c1 25 4 51 8 56
3 5 27 9 53 9 l48 0 3 51 c3 45 6 52 25 53 27 2 58 5 74 7 7 1 13 23 15 55 l3
52 53 3 52 3 0 55 0 54 55 0 55 0 0 55 0 54 58 3 57 3 3 58 3 57 54 0 55 0 0
55 0 55 54 0 55 0 3 53 3 52 55 5 55 5 3 52 c3 50 4 53 36 58 18 4 41 5 52 3
16 -2 19 3 20 32 3 70 4 80 12 79 4 -1 28 -1 55 0 l47 1 0 55 0 55 115 0 115
0 0 -60 0 -60 54 0 55 0 3 -52 3 -53 58 -3 57 -3 0 -55 0 -55 108 3 107 3 3
168 2 167 55 0 55 0 0 846 0 845 -167 -2 -168 -2 0 114 0 113 55 1 55 0 3 58
3 57 334 0 335 0 0 55 0 54 113 3 112 3 3 53 c3 56 -1 53 77 56 29 1 30 3 33
54 l3 52 55 0 54 0 0 60 0 60 54 0 55 0 3 53 3 52 55 5 55 5 3 113 3 112 54 0
55 0 0 335 0 335 -396 0 -396 0 2 -37 c4 -78 12 -73 -110 -73 l-109 0 -3 -57
-3 -58 -112 1 -113 2 0 -59 0 -59 -55 0 -55 0 0 -54 c0 -30 5 -58 10 -61 6 -3
10 -12 10 -18 0 -7 -5 -4 -11 6 -8 13 -23 17 -64 17 l-55 0 0 -55 c0 -50 -2
-55 -22 -56 -13 -1 -30 -3 -38 -4 -8 -1 -23 -3 -32 -4 -16 -1 -18 -16 -18
-166 l0 -165 -60 0 -60 0 -2 -282 -3 -283 -52 -2 -53 -2 0 284 0 284 -57 3
-58 3 -1 95 c-1 52 -2 128 -3 168 l-1 72 -55 0 -55 0 0 55 0 55 -55 0 -55 0 0
55 0 55 -55 0 -54 0 -3 58 -3 57 -112 3 -113 3 0 54 0 54 -112 3 -113 3 -3 53
-3 52 -390 0 -389 0 0 -335z m672 168 l3 -58 168 -3 167 -2 0 -55 0 -55 54 0
c30 0 57 -4 61 -9 3 -5 27 -7 54 -4 l49 5 7 -106 c4 -58 11 -106 15 -106 4 0
5 22 2 49 l-4 49 46 3 46 4 0 -45 c0 -44 -1 -46 -32 -48 -48 -4 -47 -12 0 -12
l42 0 0 -60 0 -60 55 0 55 0 0 -221 0 -220 -52 3 -53 3 0 50 c0 28 -4 53 -10
57 -5 4 -31 8 -57 8 l-48 0 0 55 0 55 -55 0 -55 0 0 55 0 55 -54 0 -55 0 -3
53 -3 52 -112 3 -112 3 -3 56 -3 56 -50 0 -50 0 -5 56 -5 56 -62 3 -63 3 0
-66 0 -65 61 0 61 0 -2 -32 c-5 -79 -5 -78 55 -78 l55 0 0 -55 0 -55 39 0 c65
0 71 -6 71 -66 l0 -54 59 0 58 0 1 -32 c1 -83 -3 -78 57 -78 l55 0 0 -55 c0
-60 -1 -60 78 -55 l32 2 0 -51 0 -51 -220 0 -220 0 0 55 0 55 -58 0 -59 0 5
55 4 55 -116 0 -116 0 0 60 0 60 -55 0 -55 0 0 110 0 110 -54 0 -54 0 4 86 c3
47 1 83 -3 81 -5 -3 -8 9 -8 26 0 31 -1 32 -52 37 l-52 5 -5 156 c-3 86 -2
159 1 163 4 3 129 6 279 6 l273 0 3 -57z m2702 49 c3 -5 2 -79 -1 -165 l-6
-157 -53 0 -52 0 1 -112 2 -113 -55 -5 -55 -5 -3 -107 -3 -107 -57 -3 -57 -3
-3 -52 c-3 -46 -6 -53 -25 -55 -32 -3 -74 -5 -139 -6 l-58 -2 0 -54 0 -55 -52
-3 -53 -3 -3 -55 -3 -55 -219 3 -220 3 0 44 c0 29 5 45 13 46 6 1 30 2 52 3
l40 1 3 58 3 57 54 0 55 0 0 55 0 54 58 3 57 3 5 55 c5 60 -1 55 88 59 20 1
22 6 23 59 0 31 2 52 5 47 5 -13 97 -6 106 9 4 6 5 32 2 59 l-7 47 57 0 56 0
0 65 0 66 -57 -3 -58 -3 -3 -58 -3 -58 -52 2 -52 3 -3 -52 -3 -52 -85 -1 c-46
-1 -93 -3 -104 -4 -11 -1 -24 -3 -30 -4 -5 0 -10 -26 -10 -56 0 -30 -3 -54 -7
-54 -5 1 -29 1 -55 0 l-48 -1 0 -55 0 -54 -57 -3 -58 -3 -3 -57 -3 -57 -52 -3
-52 -3 -3 -52 -3 -53 -50 0 -49 0 0 225 0 225 55 0 55 0 0 55 c0 30 4 55 9 55
15 0 22 33 9 42 -10 6 -10 8 0 8 6 0 12 9 12 20 0 13 5 18 15 13 9 -3 22 3 31
13 14 18 14 18 4 -4 -9 -18 -8 -27 2 -39 11 -14 14 -11 18 23 l5 39 58 3 57 3
-1 42 c-1 23 -4 32 -6 19 -2 -12 -9 -20 -14 -16 -6 3 -17 -2 -25 -12 -15 -18
-15 -18 -11 3 4 17 1 20 -12 15 -9 -3 -20 -10 -24 -16 -5 -7 -7 -5 -4 4 2 8 0
22 -4 32 -8 14 4 17 106 23 l115 7 0 54 0 54 168 2 167 3 3 58 3 57 274 0
c151 0 276 -4 279 -8z m-1024 -296 c0 -3 -4 -8 -10 -11 -5 -3 -10 -1 -10 4 0
6 5 11 10 11 6 0 10 -2 10 -4z m-220 -1665 l0 -50 -47 -3 -48 -3 -3 -57 -3
-58 -59 0 -60 0 0 -54 0 -55 -52 -3 -53 -3 -5 -54 -5 -54 -54 -1 -55 -1 -1
-42 c-1 -24 -3 -49 -3 -55 -1 -9 -20 -13 -54 -13 l-53 0 -3 -57 -3 -58 -54 0
-55 0 0 -110 0 -110 -60 0 -60 0 0 -60 0 -60 -55 0 -55 0 0 -55 0 -55 -55 0
-54 0 -3 -57 -3 -56 -50 -1 -50 -1 -3 -52 -3 -52 -57 -3 -57 -3 -3 -57 -3 -58
-54 0 -55 0 0 -55 0 -55 -55 0 -55 0 0 -55 0 -54 -57 -3 -58 -3 -3 -52 -3 -53
-48 0 c-55 0 -61 -7 -61 -76 l0 -44 -55 0 c-54 0 -62 -6 -56 -42 0 -5 -3 -8
-9 -8 -5 0 -10 -5 -10 -11 0 -5 5 -7 10 -4 6 3 10 2 10 -3 0 -13 -29 -24 -42
-15 -6 3 -8 1 -4 -5 4 -7 -6 -12 -26 -14 -33 -3 -33 -4 -36 -60 l-3 -58 -53 0
c-52 0 -54 -1 -60 -31 -3 -17 -6 -42 -6 -55 0 -22 -4 -24 -55 -24 l-55 0 0
-45 c0 -29 -4 -45 -12 -45 -9 0 -8 -4 2 -10 11 -7 0 -10 -37 -10 -61 0 -73
-14 -73 -79 l0 -41 -49 0 -48 0 -7 -49 c-7 -53 -16 -60 -68 -53 -25 4 -27 7
-32 76 -3 39 -8 135 -11 214 l-6 142 65 0 65 0 3 58 3 57 48 -3 47 -3 0 56 c0
45 3 55 18 56 9 0 35 1 57 2 l40 2 3 58 3 57 54 0 55 0 0 55 0 55 55 0 55 0 0
55 0 55 60 0 60 0 0 60 0 60 55 0 55 0 0 55 0 55 55 0 55 0 0 55 0 55 55 0 54
0 3 58 3 57 58 3 58 3 -3 52 -3 52 58 3 57 3 0 54 0 55 55 0 55 0 0 55 0 55
60 0 61 0 -3 58 -3 57 -57 3 -58 3 0 54 0 55 -55 0 -55 0 0 55 0 55 -55 0 -55
0 0 38 c0 64 -10 83 -39 82 -79 -6 -81 -4 -81 50 l0 50 204 0 c212 0 263 7
252 36 -4 9 -4 32 0 50 l6 34 222 2 221 3 3 53 3 52 275 0 274 0 0 -49z
m-3602 -618 l-3 -108 -55 -5 -55 -5 -3 -108 -3 -108 -109 3 -109 3 -3 -60 -3
-60 -562 -3 -563 -2 0 -55 0 -55 -55 0 -55 0 0 -564 0 -564 448 -4 c246 -2
449 -2 452 0 3 2 5 27 5 55 l0 52 58 3 57 3 0 54 0 55 55 0 55 0 0 55 0 54 57
3 56 3 1 55 1 55 58 3 57 3 0 54 0 55 55 0 55 0 0 55 0 55 55 0 55 0 0 55 0
54 58 3 57 3 3 58 3 57 54 0 55 0 0 55 0 55 55 0 54 0 0 -177 c0 -98 -4 -196
-7 -218 l-7 -40 -55 -5 -55 -5 3 -33 c5 -51 -20 -82 -68 -82 l-40 0 0 -49 c0
-55 -7 -61 -71 -61 l-39 0 0 -55 c0 -30 -4 -55 -10 -55 -5 0 -10 6 -11 13 0 8
-2 8 -6 -2 -5 -11 -7 -11 -14 0 -6 10 -9 11 -9 2 0 -8 -14 -13 -35 -13 -31 0
-35 -3 -36 -27 -1 -16 -1 -32 0 -37 1 -4 -3 -14 -9 -21 -6 -7 -7 -15 -3 -17 4
-3 4 -4 -2 -3 -5 1 -30 -1 -55 -4 l-44 -6 3 -52 c2 -42 -1 -53 -13 -54 -9 -1
-25 -3 -36 -4 -11 -1 -29 -3 -40 -4 -16 -1 -20 -8 -20 -33 0 -66 -7 -75 -58
-76 -53 -1 -72 -18 -64 -57 2 -15 0 -25 -7 -25 -6 0 -10 -5 -9 -11 2 -6 -9
-13 -24 -16 -16 -2 -28 1 -28 7 0 5 -5 10 -11 10 -5 0 -7 -4 -4 -10 3 -5 -1
-10 -9 -10 -13 0 -16 -12 -16 -54 0 -45 -3 -55 -20 -59 -10 -3 -261 -5 -557
-5 -296 0 -566 -1 -601 -1 l-64 -1 2 -42 c3 -69 4 -68 -50 -68 l-49 0 -3 -57
-3 -58 -60 -5 c-38 -3 -60 -10 -61 -17 -1 -7 -2 -56 -3 -108 l-1 -95 -55 0
-55 0 -1 -37 c-1 -21 -1 -44 0 -50 1 -7 -3 -13 -9 -13 -5 0 -10 6 -11 13 0 10
-2 10 -6 0 -2 -7 -20 -13 -39 -13 -36 0 -43 -8 -48 -53 -4 -38 -24 -57 -61
-57 -39 0 -60 -21 -52 -52 4 -12 4 -33 1 -45 -5 -20 -13 -23 -55 -23 -53 0
-51 4 -52 -80 -1 -23 -5 -25 -56 -30 l-56 -5 -3 -57 -3 -58 -50 0 c-55 0 -58
-4 -62 -66 l-2 -39 -120 0 c-68 0 -123 4 -127 10 -5 6 -8 5 -8 -2 0 -7 -5 -13
-11 -13 -5 0 -7 5 -4 10 4 6 -7 10 -24 10 -20 0 -30 -5 -28 -12 1 -9 -16 -14
-55 -16 l-58 -3 0 56 0 55 50 0 49 0 3 58 3 57 58 3 57 3 0 54 0 55 55 0 54 0
3 57 3 56 55 1 55 1 1 40 c1 72 0 70 56 70 l53 0 3 58 3 57 54 0 55 0 0 55 0
55 60 0 60 0 0 54 0 55 53 3 52 3 3 52 3 52 52 3 52 3 5 1015 5 1015 53 3 52
3 0 49 0 49 53 3 52 3 3 45 c1 25 5 51 7 58 3 9 204 12 960 12 l955 0 -2 -107z"/>
<path d="M7813 6370 c3 -11 1 -20 -4 -20 -5 0 -9 -4 -9 -10 0 -11 28 -9 48 3
7 5 12 3 12 -3 0 -6 5 -8 11 -4 8 4 6 10 -6 17 -12 7 -20 5 -26 -4 -6 -10 -9
-6 -9 14 0 15 -5 27 -11 27 -6 0 -9 -9 -6 -20z"/>
<path d="M1918 1913 c7 -3 16 -2 19 1 4 3 -2 6 -13 5 -11 0 -14 -3 -6 -6z"/>
<path d="M1900 1809 c0 -5 5 -7 10 -4 6 3 10 8 10 11 0 2 -4 4 -10 4 -5 0 -10
-5 -10 -11z"/>
<path d="M1800 1800 c0 -5 4 -10 9 -10 6 0 13 5 16 10 3 6 -1 10 -9 10 -9 0
-16 -4 -16 -10z"/>
<path d="M1810 1759 c0 -5 5 -7 10 -4 6 3 10 8 10 11 0 2 -4 4 -10 4 -5 0 -10
-5 -10 -11z"/>
<path d="M5517 5534 c-4 -4 -7 -54 -7 -111 l0 -103 60 0 61 0 -3 108 -3 107
-50 3 c-28 2 -54 0 -58 -4z"/>
<path d="M5290 5255 l0 -55 110 0 110 0 0 55 0 55 -110 0 -110 0 0 -55z"/>
<path d="M5630 5255 l0 -55 110 0 110 0 0 55 0 55 -110 0 -110 0 0 -55z"/>
<path d="M5517 5194 c-4 -4 -7 -54 -7 -111 l0 -103 61 0 60 0 -3 108 -3 107
-50 3 c-28 2 -54 0 -58 -4z"/>
</g>
</svg>
